<svg width="144" height="26" xmlns="http://www.w3.org/2000/svg" viewBox="0 0 144 26">
  <!-- Frame 1 - Legs extended up -->
  <g id="frame1">
    <!-- Body -->
    <ellipse cx="12" cy="13" rx="8" ry="6" fill="#8B4513"/>
    <ellipse cx="12" cy="14" rx="6" ry="5" fill="#654321"/>
    
    <!-- Left legs - up position -->
    <line x1="6" y1="11" x2="2" y2="6" stroke="#654321" stroke-width="1.5"/>
    <line x1="6" y1="13" x2="1" y2="8" stroke="#654321" stroke-width="1.5"/>
    <line x1="6" y1="15" x2="2" y2="20" stroke="#654321" stroke-width="1.5"/>
    
    <!-- Right legs - up position -->
    <line x1="18" y1="11" x2="22" y2="6" stroke="#654321" stroke-width="1.5"/>
    <line x1="18" y1="13" x2="23" y2="8" stroke="#654321" stroke-width="1.5"/>
    <line x1="18" y1="15" x2="22" y2="20" stroke="#654321" stroke-width="1.5"/>
    
    <!-- Eyes -->
    <circle cx="10" cy="12" r="1.5" fill="#FF0000"/>
    <circle cx="14" cy="12" r="1.5" fill="#FF0000"/>
  </g>
  
  <!-- Frame 2 - Legs transitioning -->
  <g id="frame2" transform="translate(24, 0)">
    <ellipse cx="12" cy="13" rx="8" ry="6" fill="#8B4513"/>
    <ellipse cx="12" cy="14" rx="6" ry="5" fill="#654321"/>
    
    <line x1="6" y1="11" x2="3" y2="8" stroke="#654321" stroke-width="1.5"/>
    <line x1="6" y1="13" x2="1" y2="11" stroke="#654321" stroke-width="1.5"/>
    <line x1="6" y1="15" x2="3" y2="18" stroke="#654321" stroke-width="1.5"/>
    
    <line x1="18" y1="11" x2="21" y2="8" stroke="#654321" stroke-width="1.5"/>
    <line x1="18" y1="13" x2="23" y2="11" stroke="#654321" stroke-width="1.5"/>
    <line x1="18" y1="15" x2="21" y2="18" stroke="#654321" stroke-width="1.5"/>
    
    <circle cx="10" cy="12" r="1.5" fill="#FF0000"/>
    <circle cx="14" cy="12" r="1.5" fill="#FF0000"/>
  </g>
  
  <!-- Frame 3 - Legs horizontal -->
  <g id="frame3" transform="translate(48, 0)">
    <ellipse cx="12" cy="13" rx="8" ry="6" fill="#8B4513"/>
    <ellipse cx="12" cy="14" rx="6" ry="5" fill="#654321"/>
    
    <line x1="6" y1="11" x2="2" y2="10" stroke="#654321" stroke-width="1.5"/>
    <line x1="6" y1="13" x2="1" y2="13" stroke="#654321" stroke-width="1.5"/>
    <line x1="6" y1="15" x2="2" y2="16" stroke="#654321" stroke-width="1.5"/>
    
    <line x1="18" y1="11" x2="22" y2="10" stroke="#654321" stroke-width="1.5"/>
    <line x1="18" y1="13" x2="23" y2="13" stroke="#654321" stroke-width="1.5"/>
    <line x1="18" y1="15" x2="22" y2="16" stroke="#654321" stroke-width="1.5"/>
    
    <circle cx="10" cy="12" r="1.5" fill="#FF0000"/>
    <circle cx="14" cy="12" r="1.5" fill="#FF0000"/>
  </g>
  
  <!-- Frame 4 - Legs down -->
  <g id="frame4" transform="translate(72, 0)">
    <ellipse cx="12" cy="13" rx="8" ry="6" fill="#8B4513"/>
    <ellipse cx="12" cy="14" rx="6" ry="5" fill="#654321"/>
    
    <line x1="6" y1="11" x2="2" y2="14" stroke="#654321" stroke-width="1.5"/>
    <line x1="6" y1="13" x2="1" y2="16" stroke="#654321" stroke-width="1.5"/>
    <line x1="6" y1="15" x2="2" y2="20" stroke="#654321" stroke-width="1.5"/>
    
    <line x1="18" y1="11" x2="22" y2="14" stroke="#654321" stroke-width="1.5"/>
    <line x1="18" y1="13" x2="23" y2="16" stroke="#654321" stroke-width="1.5"/>
    <line x1="18" y1="15" x2="22" y2="20" stroke="#654321" stroke-width="1.5"/>
    
    <circle cx="10" cy="12" r="1.5" fill="#FF0000"/>
    <circle cx="14" cy="12" r="1.5" fill="#FF0000"/>
  </g>
  
  <!-- Frame 5 - Legs transitioning back -->
  <g id="frame5" transform="translate(96, 0)">
    <ellipse cx="12" cy="13" rx="8" ry="6" fill="#8B4513"/>
    <ellipse cx="12" cy="14" rx="6" ry="5" fill="#654321"/>
    
    <line x1="6" y1="11" x2="3" y2="12" stroke="#654321" stroke-width="1.5"/>
    <line x1="6" y1="13" x2="1" y2="15" stroke="#654321" stroke-width="1.5"/>
    <line x1="6" y1="15" x2="3" y2="18" stroke="#654321" stroke-width="1.5"/>
    
    <line x1="18" y1="11" x2="21" y2="12" stroke="#654321" stroke-width="1.5"/>
    <line x1="18" y1="13" x2="23" y2="15" stroke="#654321" stroke-width="1.5"/>
    <line x1="18" y1="15" x2="21" y2="18" stroke="#654321" stroke-width="1.5"/>
    
    <circle cx="10" cy="12" r="1.5" fill="#FF0000"/>
    <circle cx="14" cy="12" r="1.5" fill="#FF0000"/>
  </g>
  
  <!-- Frame 6 - Legs horizontal opposite -->
  <g id="frame6" transform="translate(120, 0)">
    <ellipse cx="12" cy="13" rx="8" ry="6" fill="#8B4513"/>
    <ellipse cx="12" cy="14" rx="6" ry="5" fill="#654321"/>
    
    <line x1="6" y1="11" x2="2" y2="10" stroke="#654321" stroke-width="1.5"/>
    <line x1="6" y1="13" x2="1" y2="13" stroke="#654321" stroke-width="1.5"/>
    <line x1="6" y1="15" x2="2" y2="16" stroke="#654321" stroke-width="1.5"/>
    
    <line x1="18" y1="11" x2="22" y2="10" stroke="#654321" stroke-width="1.5"/>
    <line x1="18" y1="13" x2="23" y2="13" stroke="#654321" stroke-width="1.5"/>
    <line x1="18" y1="15" x2="22" y2="16" stroke="#654321" stroke-width="1.5"/>
    
    <circle cx="10" cy="12" r="1.5" fill="#FF0000"/>
    <circle cx="14" cy="12" r="1.5" fill="#FF0000"/>
  </g>
</svg>